<svg xmlns="http://www.w3.org/2000/svg" viewBox="0 0 200 220" fill="none">
  <defs>
    <linearGradient id="abBg" x1="0" y1="0" x2="1" y2="1">
      <stop offset="0%" stop-color="#0A2240"/>
      <stop offset="100%" stop-color="#07182C"/>
    </linearGradient>
    <radialGradient id="abGlow" cx="50%" cy="40%" r="60%">
      <stop offset="0%" stop-color="#2D7DFF" stop-opacity="0.55"/>
      <stop offset="100%" stop-color="#2D7DFF" stop-opacity="0"/>
    </radialGradient>
  </defs>
  <path d="M40 12 L160 12 L188 60 L188 160 L160 208 L40 208 L12 160 L12 60 Z" fill="url(#abBg)"/>
  <path d="M40 12 L160 12 L188 60 L188 160 L160 208 L40 208 L12 160 L12 60 Z" stroke="rgba(45,125,255,0.35)" stroke-width="1.5"/>
  <ellipse cx="100" cy="100" rx="80" ry="60" fill="url(#abGlow)"/>
  <g stroke="#FFFFFF" stroke-width="3.2" stroke-linecap="round" fill="none">
    <path d="M62 70 C 90 90, 110 130, 138 150"/>
    <path d="M138 70 C 110 90, 90 130, 62 150"/>
    <path d="M70 84 L 132 84" opacity="0.85"/>
    <path d="M76 100 L 126 100" opacity="0.85"/>
    <path d="M76 120 L 126 120" opacity="0.85"/>
    <path d="M70 136 L 132 136" opacity="0.85"/>
  </g>
  <g fill="#2D7DFF">
    <circle cx="70" cy="84" r="3.2"/>
    <circle cx="132" cy="84" r="3.2"/>
    <circle cx="76" cy="100" r="3.2"/>
    <circle cx="126" cy="100" r="3.2"/>
    <circle cx="76" cy="120" r="3.2"/>
    <circle cx="126" cy="120" r="3.2"/>
    <circle cx="70" cy="136" r="3.2"/>
    <circle cx="132" cy="136" r="3.2"/>
  </g>
</svg>
